# xmcd
#
# Track frame offsets:
#	150
#	17644
#	31786
#	49665
#	62543
#	77936
#	93452
#	111774
#	128522
#	147908
#	163588
#	182001
#	200248
#	217030
#
# Disc length: 3117 seconds
#
# Revision: 1
# Processed by: cddbd v1.5.2PL0 Copyright (c) Steve Scherf et al.
# Submitted via: audiograbber 1.83.01
#
DISCID=bf0c2b0e
DTITLE=Various Artist - CDX Volume 568 (April 15, 2013)
DYEAR=2013
DGENRE=Country
TTITLE0=Blake Shelton (featuring Pistol Annies and Friends) - Boys 'Round Here
TTITLE1=LoCash Cowboys - Chase A Little Love [Radio Edit]
TTITLE2=Luke Bryan - Crash My Party 
TTITLE3=Eric Paslay - Friday Night 
TTITLE4=Randy Rogers Band - Fuzzy 
TTITLE5=Pistol Annies - Hush Hush
TTITLE6=Carrie Underwood - See You Again [Radio Edit]
TTITLE7=Joe Diffie, Sammy Kershaw and Aaron Tippin - All In The Same Boat [Radio 
TTITLE7=Edit]
TTITLE8=Imaj - Guess Who's Coming To Dinner
TTITLE9=David Shelby - Kick A Little Dirt Around
TTITLE10=Joe Allen - Looks Like It's Raining
TTITLE11=Eric Ziegler - Nicotine 
TTITLE12=Chris Weaver Band - So Damn Beautiful
TTITLE13=Frank Ortega - Two Places At Once 
EXTD=
EXTT0=
EXTT1=
EXTT2=
EXTT3=
EXTT4=
EXTT5=
EXTT6=
EXTT7=
EXTT8=
EXTT9=
EXTT10=
EXTT11=
EXTT12=
EXTT13=
PLAYORDER=
